<svg width="49" height="49" viewBox="0 0 49 49" fill="none" xmlns="http://www.w3.org/2000/svg">
<rect x="1.25702" y="1.25702" width="45.7135" height="45.7135" rx="22.8568" fill="url(#paint0_linear_49_832)"/>
<rect x="1.25702" y="1.25702" width="45.7135" height="45.7135" rx="22.8568" stroke="#F5F5F5" stroke-width="2.51429"/>
<g clip-path="url(#clip0_49_832)">
<g clip-path="url(#clip1_49_832)">
<g clip-path="url(#clip2_49_832)">
<path d="M19.6486 20.3536H15.4184C15.2314 20.3536 15.0521 20.2793 14.9199 20.1471C14.7877 20.0149 14.7134 19.8356 14.7134 19.6486V15.4184C14.7134 15.2314 14.7877 15.0521 14.9199 14.9199C15.0521 14.7877 15.2314 14.7134 15.4184 14.7134H19.6486C19.8356 14.7134 20.0149 14.7877 20.1471 14.9199C20.2793 15.0521 20.3536 15.2314 20.3536 15.4184V19.6486C20.3536 19.8356 20.2793 20.0149 20.1471 20.1471C20.0149 20.2793 19.8356 20.3536 19.6486 20.3536Z" fill="white"/>
<mask id="mask0_49_832" style="mask-type:alpha" maskUnits="userSpaceOnUse" x="14" y="14" width="7" height="7">
<path d="M19.6509 20.1189H15.4207C15.296 20.1189 15.1765 20.0694 15.0883 19.9813C15.0002 19.8931 14.9507 19.7736 14.9507 19.6489V15.4188C14.9507 15.2941 15.0002 15.1745 15.0883 15.0864C15.1765 14.9983 15.296 14.9487 15.4207 14.9487H19.6509C19.7755 14.9487 19.8951 14.9983 19.9832 15.0864C20.0714 15.1745 20.1209 15.2941 20.1209 15.4188V19.6489C20.1209 19.7736 20.0714 19.8931 19.9832 19.9813C19.8951 20.0694 19.7755 20.1189 19.6509 20.1189Z" stroke="black" stroke-width="0.47002"/>
</mask>
<g mask="url(#mask0_49_832)">
<g style="mix-blend-mode:overlay" filter="url(#filter0_f_49_832)">
<path d="M13.3045 18.4737C16.1599 18.4737 18.4747 16.1589 18.4747 13.3035C18.4747 10.4481 16.1599 8.1333 13.3045 8.1333C10.4491 8.1333 8.13428 10.4481 8.13428 13.3035C8.13428 16.1589 10.4491 18.4737 13.3045 18.4737Z" fill="white"/>
</g>
</g>
<path opacity="0.8" d="M26.2296 20.3536H21.9995C21.8125 20.3536 21.6332 20.2793 21.5009 20.1471C21.3687 20.0149 21.2944 19.8356 21.2944 19.6486V15.4184C21.2944 15.2314 21.3687 15.0521 21.5009 14.9199C21.6332 14.7877 21.8125 14.7134 21.9995 14.7134H26.2296C26.4166 14.7134 26.596 14.7877 26.7282 14.9199C26.8604 15.0521 26.9347 15.2314 26.9347 15.4184V19.6486C26.9347 19.8356 26.8604 20.0149 26.7282 20.1471C26.596 20.2793 26.4166 20.3536 26.2296 20.3536Z" fill="white"/>
<path opacity="0.6" d="M26.2296 26.9339H21.9995C21.8125 26.9339 21.6332 26.8596 21.5009 26.7274C21.3687 26.5952 21.2944 26.4158 21.2944 26.2289V21.9987C21.2944 21.8117 21.3687 21.6324 21.5009 21.5002C21.6332 21.3679 21.8125 21.2937 21.9995 21.2937H26.2296C26.4166 21.2937 26.596 21.3679 26.7282 21.5002C26.8604 21.6324 26.9347 21.8117 26.9347 21.9987V26.2289C26.9347 26.4158 26.8604 26.5952 26.7282 26.7274C26.596 26.8596 26.4166 26.9339 26.2296 26.9339ZM32.8099 20.3536H28.5797C28.3928 20.3536 28.2134 20.2793 28.0812 20.1471C27.949 20.0149 27.8747 19.8356 27.8747 19.6486V15.4184C27.8747 15.2314 27.949 15.0521 28.0812 14.9199C28.2134 14.7877 28.3928 14.7134 28.5797 14.7134H32.8099C32.9969 14.7134 33.1762 14.7877 33.3084 14.9199C33.4407 15.0521 33.5149 15.2314 33.5149 15.4184V19.6486C33.5149 19.8356 33.4407 20.0149 33.3084 20.1471C33.1762 20.2793 32.9969 20.3536 32.8099 20.3536Z" fill="white"/>
<path opacity="0.8" d="M19.6486 26.9337H15.4184C15.2314 26.9337 15.0521 26.8594 14.9199 26.7272C14.7877 26.595 14.7134 26.4156 14.7134 26.2287V21.9985C14.7134 21.8115 14.7877 21.6322 14.9199 21.5C15.0521 21.3677 15.2314 21.2935 15.4184 21.2935H19.6486C19.8356 21.2935 20.0149 21.3677 20.1471 21.5C20.2793 21.6322 20.3536 21.8115 20.3536 21.9985V26.2287C20.3536 26.4156 20.2793 26.595 20.1471 26.7272C20.0149 26.8594 19.8356 26.9337 19.6486 26.9337Z" fill="white"/>
<path opacity="0.6" d="M19.6486 33.5138H15.4184C15.2314 33.5138 15.0521 33.4395 14.9199 33.3073C14.7877 33.1751 14.7134 32.9957 14.7134 32.8087V28.5786C14.7134 28.3916 14.7877 28.2123 14.9199 28.08C15.0521 27.9478 15.2314 27.8735 15.4184 27.8735H19.6486C19.8356 27.8735 20.0149 27.9478 20.1471 28.08C20.2793 28.2123 20.3536 28.3916 20.3536 28.5786V32.8087C20.3536 32.9957 20.2793 33.1751 20.1471 33.3073C20.0149 33.4395 19.8356 33.5138 19.6486 33.5138Z" fill="white"/>
<path opacity="0.4" d="M32.1043 25.994H29.2842C29.1595 25.994 29.04 25.9445 28.9518 25.8564C28.8637 25.7682 28.8142 25.6487 28.8142 25.524V22.7039C28.8142 22.5792 28.8637 22.4597 28.9518 22.3716C29.04 22.2834 29.1595 22.2339 29.2842 22.2339H32.1043C32.229 22.2339 32.3485 22.2834 32.4367 22.3716C32.5248 22.4597 32.5743 22.5792 32.5743 22.7039V25.524C32.5743 25.6487 32.5248 25.7682 32.4367 25.8564C32.3485 25.9445 32.229 25.994 32.1043 25.994ZM25.524 33.0443H22.7039C22.5792 33.0443 22.4597 32.9948 22.3716 32.9067C22.2834 32.8185 22.2339 32.699 22.2339 32.5743V29.7542C22.2339 29.6295 22.2834 29.51 22.3716 29.4218C22.4597 29.3337 22.5792 29.2842 22.7039 29.2842H25.524C25.6487 29.2842 25.7682 29.3337 25.8564 29.4218C25.9445 29.51 25.994 29.6295 25.994 29.7542V32.5743C25.994 32.699 25.9445 32.8185 25.8564 32.9067C25.7682 32.9948 25.6487 33.0443 25.524 33.0443Z" fill="white"/>
<path opacity="0.2" d="M32.1041 33.0448H29.284C29.1593 33.0448 29.0398 32.9953 28.9516 32.9072C28.8635 32.819 28.814 32.6995 28.814 32.5748V29.7547C28.814 29.63 28.8635 29.5105 28.9516 29.4223C29.0398 29.3342 29.1593 29.2847 29.284 29.2847H32.1041C32.2288 29.2847 32.3483 29.3342 32.4365 29.4223C32.5246 29.5105 32.5741 29.63 32.5741 29.7547V32.5748C32.5741 32.6995 32.5246 32.819 32.4365 32.9072C32.3483 32.9953 32.2288 33.0448 32.1041 33.0448Z" fill="white"/>
<mask id="mask1_49_832" style="mask-type:alpha" maskUnits="userSpaceOnUse" x="14" y="14" width="20" height="20">
<path fill-rule="evenodd" clip-rule="evenodd" d="M19.6505 20.3536H15.4204C15.2334 20.3536 15.054 20.2793 14.9218 20.1471C14.7896 20.0149 14.7153 19.8356 14.7153 19.6486V15.4184C14.7153 15.2314 14.7896 15.0521 14.9218 14.9199C15.054 14.7877 15.2334 14.7134 15.4204 14.7134H19.6505C19.8375 14.7134 20.0168 14.7877 20.1491 14.9199C20.2813 15.0521 20.3556 15.2314 20.3556 15.4184V19.6486C20.3556 19.8356 20.2813 20.0149 20.1491 20.1471C20.0168 20.2793 19.8375 20.3536 19.6505 20.3536ZM26.2308 20.3536H22.0006C21.8136 20.3536 21.6343 20.2793 21.5021 20.1471C21.3699 20.0149 21.2956 19.8356 21.2956 19.6486V15.4184C21.2956 15.2314 21.3699 15.0521 21.5021 14.9199C21.6343 14.7877 21.8136 14.7134 22.0006 14.7134H26.2308C26.4178 14.7134 26.5971 14.7877 26.7293 14.9199C26.8616 15.0521 26.9358 15.2314 26.9358 15.4184V19.6486C26.9358 19.8356 26.8616 20.0149 26.7293 20.1471C26.5971 20.2793 26.4178 20.3536 26.2308 20.3536ZM22.0006 26.9339H26.2308C26.4178 26.9339 26.5971 26.8596 26.7293 26.7274C26.8616 26.5952 26.9358 26.4158 26.9358 26.2289V21.9987C26.9358 21.8117 26.8616 21.6324 26.7293 21.5002C26.5971 21.3679 26.4178 21.2937 26.2308 21.2937H22.0006C21.8136 21.2937 21.6343 21.3679 21.5021 21.5002C21.3699 21.6324 21.2956 21.8117 21.2956 21.9987V26.2289C21.2956 26.4158 21.3699 26.5952 21.5021 26.7274C21.6343 26.8596 21.8136 26.9339 22.0006 26.9339ZM32.8111 20.3536H28.5809C28.3939 20.3536 28.2146 20.2793 28.0824 20.1471C27.9502 20.0149 27.8759 19.8356 27.8759 19.6486V15.4184C27.8759 15.2314 27.9502 15.0521 28.0824 14.9199C28.2146 14.7877 28.3939 14.7134 28.5809 14.7134H32.8111C32.9981 14.7134 33.1774 14.7877 33.3096 14.9199C33.4418 15.0521 33.5161 15.2314 33.5161 15.4184V19.6486C33.5161 19.8356 33.4418 20.0149 33.3096 20.1471C33.1774 20.2793 32.9981 20.3536 32.8111 20.3536ZM15.4204 26.9339H19.6505C19.8375 26.9339 20.0168 26.8596 20.1491 26.7274C20.2813 26.5952 20.3556 26.4158 20.3556 26.2289V21.9987C20.3556 21.8117 20.2813 21.6324 20.1491 21.5002C20.0168 21.3679 19.8375 21.2937 19.6505 21.2937H15.4204C15.2334 21.2937 15.054 21.3679 14.9218 21.5002C14.7896 21.6324 14.7153 21.8117 14.7153 21.9987V26.2289C14.7153 26.4158 14.7896 26.5952 14.9218 26.7274C15.054 26.8596 15.2334 26.9339 15.4204 26.9339ZM19.6505 33.5142H15.4204C15.2334 33.5142 15.054 33.4399 14.9218 33.3077C14.7896 33.1754 14.7153 32.9961 14.7153 32.8091V28.579C14.7153 28.392 14.7896 28.2126 14.9218 28.0804C15.054 27.9482 15.2334 27.8739 15.4204 27.8739H19.6505C19.8375 27.8739 20.0168 27.9482 20.1491 28.0804C20.2813 28.2126 20.3556 28.392 20.3556 28.579V32.8091C20.3556 32.9961 20.2813 33.1754 20.1491 33.3077C20.0168 33.4399 19.8375 33.5142 19.6505 33.5142ZM29.2859 25.9938H32.1061C32.2307 25.9938 32.3503 25.9443 32.4384 25.8562C32.5266 25.768 32.5761 25.6485 32.5761 25.5238V22.7037C32.5761 22.5791 32.5266 22.4595 32.4384 22.3714C32.3503 22.2832 32.2307 22.2337 32.1061 22.2337H29.2859C29.1613 22.2337 29.0417 22.2832 28.9536 22.3714C28.8654 22.4595 28.8159 22.5791 28.8159 22.7037V25.5238C28.8159 25.6485 28.8654 25.768 28.9536 25.8562C29.0417 25.9443 29.1613 25.9938 29.2859 25.9938ZM25.5258 33.0441H22.7057C22.581 33.0441 22.4615 32.9946 22.3733 32.9065C22.2852 32.8183 22.2356 32.6988 22.2356 32.5741V29.754C22.2356 29.6293 22.2852 29.5098 22.3733 29.4216C22.4615 29.3335 22.581 29.284 22.7057 29.284H25.5258C25.6504 29.284 25.77 29.3335 25.8581 29.4216C25.9463 29.5098 25.9958 29.6293 25.9958 29.754V32.5741C25.9958 32.6988 25.9463 32.8183 25.8581 32.9065C25.77 32.9946 25.6504 33.0441 25.5258 33.0441ZM29.2859 33.0441H32.1061C32.2307 33.0441 32.3503 32.9946 32.4384 32.9065C32.5266 32.8183 32.5761 32.6988 32.5761 32.5741V29.754C32.5761 29.6293 32.5266 29.5098 32.4384 29.4216C32.3503 29.3335 32.2307 29.284 32.1061 29.284H29.2859C29.1613 29.284 29.0417 29.3335 28.9536 29.4216C28.8654 29.5098 28.8159 29.6293 28.8159 29.754V32.5741C28.8159 32.6988 28.8654 32.8183 28.9536 32.9065C29.0417 32.9946 29.1613 33.0441 29.2859 33.0441Z" fill="#42A9F3"/>
</mask>
<g mask="url(#mask1_49_832)">
<g opacity="0.8" filter="url(#filter1_f_49_832)">
<path d="M27.8751 19.4131C36.1818 19.4131 42.9157 12.574 42.9157 4.13745C42.9157 -4.29905 36.1818 -11.1382 27.8751 -11.1382C19.5684 -11.1382 12.8345 -4.29905 12.8345 4.13745C12.8345 12.574 19.5684 19.4131 27.8751 19.4131Z" fill="white"/>
</g>
</g>
</g>
</g>
</g>
<defs>
<filter id="filter0_f_49_832" x="2.96406" y="2.96309" width="20.6808" height="20.6808" filterUnits="userSpaceOnUse" color-interpolation-filters="sRGB">
<feFlood flood-opacity="0" result="BackgroundImageFix"/>
<feBlend mode="normal" in="SourceGraphic" in2="BackgroundImageFix" result="shape"/>
<feGaussianBlur stdDeviation="2.58511" result="effect1_foregroundBlur_49_832"/>
</filter>
<filter id="filter1_f_49_832" x="8.13428" y="-15.8384" width="39.4814" height="39.9517" filterUnits="userSpaceOnUse" color-interpolation-filters="sRGB">
<feFlood flood-opacity="0" result="BackgroundImageFix"/>
<feBlend mode="normal" in="SourceGraphic" in2="BackgroundImageFix" result="shape"/>
<feGaussianBlur stdDeviation="2.3501" result="effect1_foregroundBlur_49_832"/>
</filter>
<linearGradient id="paint0_linear_49_832" x1="38.8408" y1="2.51416" x2="9.38677" y2="40.8044" gradientUnits="userSpaceOnUse">
<stop stop-color="#2E2E2E"/>
<stop offset="1" stop-color="#626262"/>
</linearGradient>
<clipPath id="clip0_49_832">
<rect width="18.8008" height="18.8008" fill="white" transform="translate(14.7134 14.7134)"/>
</clipPath>
<clipPath id="clip1_49_832">
<rect width="18.8008" height="18.8008" fill="white" transform="translate(14.7134 14.7134)"/>
</clipPath>
<clipPath id="clip2_49_832">
<rect width="18.8008" height="18.8008" fill="white" transform="translate(14.7134 14.7134)"/>
</clipPath>
</defs>
</svg>
